<?xml version="1.0" standalone="no"?>
<!DOCTYPE svg PUBLIC "-//W3C//DTD SVG 20010904//EN"
 "http://www.w3.org/TR/2001/REC-SVG-20010904/DTD/svg10.dtd">
<svg version="1.0" xmlns="http://www.w3.org/2000/svg"
 width="83.000000pt" height="71.000000pt" viewBox="0 0 83.000000 71.000000"
 preserveAspectRatio="xMidYMid meet">

<g transform="translate(0.000000,71.000000) scale(0.100000,-0.100000)"
fill="#000000" stroke="none">
<path d="M1 528 c0 -176 1 -181 14 -131 38 141 134 245 270 294 l50 18 -167 1
-168 0 1 -182z"/>
<path d="M535 696 c128 -40 235 -146 274 -269 l20 -62 0 173 1 172 -167 -1
c-151 0 -164 -2 -128 -13z"/>
<path d="M255 566 c-72 -23 -129 -46 -127 -52 3 -12 249 -94 282 -94 23 0 287
83 297 94 7 7 -271 96 -297 95 -14 -1 -83 -20 -155 -43z"/>
<path d="M200 434 c0 -14 -12 -45 -26 -70 -16 -28 -28 -65 -31 -101 -4 -50 -2
-63 20 -95 l25 -36 -29 -28 c-16 -15 -32 -43 -35 -62 l-7 -34 -23 28 c-31 39
-66 110 -80 164 -12 42 -13 38 -13 -77 l-1 -123 415 0 415 0 -1 118 c-1 91 -3
109 -10 79 -15 -66 -87 -187 -111 -187 -5 0 -7 4 -3 10 9 15 -20 76 -45 93
-23 16 -23 19 5 67 24 41 18 102 -15 165 -16 31 -30 70 -30 86 0 16 -1 29 -3
29 -2 0 -43 -13 -92 -30 -49 -16 -103 -30 -119 -30 -17 0 -69 14 -116 30 -47
16 -86 30 -87 30 -2 0 -3 -12 -3 -26z m148 -100 c32 -13 69 -74 57 -93 -3 -5
2 -11 10 -15 12 -4 15 3 15 30 0 44 34 78 95 93 60 15 68 14 62 -8 -2 -11 4
-32 14 -48 44 -66 7 -143 -69 -143 -21 0 -47 6 -57 14 -17 12 -20 10 -34 -18
-20 -39 -32 -39 -52 0 -14 28 -17 30 -34 18 -20 -15 -72 -19 -100 -8 -20 8
-45 56 -45 87 0 13 9 36 21 51 14 17 18 33 14 47 -7 20 -5 21 31 14 22 -4 54
-13 72 -21z"/>
<path d="M266 295 c-35 -33 -35 -76 1 -105 49 -38 113 -4 113 59 0 36 0 36
-13 11 -27 -53 -98 -19 -77 36 12 30 9 30 -24 -1z"/>
<path d="M539 301 c10 -18 10 -30 2 -48 -15 -33 -60 -29 -78 7 l-13 25 0 -28
c0 -39 14 -62 48 -76 83 -34 129 77 53 128 -24 15 -24 15 -12 -8z"/>
</g>
</svg>
